<?xml version="1.0" standalone="no"?>
<svg viewBox="0 0 22.504 22.504"
     xmlns="http://www.w3.org/2000/svg" version="1.1">

  <title>Example triangle01- simple example of a 'path'</title>
  <desc>A path that draws a triangle</desc>            <path d="M 7.179 18.229 L 7.179 18.251 L 7.134 18.296 L 7.134 18.341 L 7.111 18.386 L 7.134 18.454 L 7.201 18.431 L 7.201 18.341 L 7.246 18.274 L 7.246 18.206 z" fill="none" stroke="black" stroke-width="0.056" />            <path d="M 7.089 17.508 L 7.066 17.553 L 7.044 17.643 L 7.044 17.756 L 7.044 17.688 L 7.044 17.643 L 7.066 17.576 L 7.089 17.553 z" fill="none" stroke="black" stroke-width="0.056" />            <path d="M 12.985 15.303 L 12.963 15.371 L 13.008 16.383 L 12.985 17.261 L 12.985 17.463 L 13.008 17.779 L 13.008 18.341 L 13.008 18.499 L 12.963 18.769 L 13.008 18.926 L 12.985 18.881 L 12.963 18.746 L 13.008 18.521 L 13.008 18.341 L 13.008 17.779 L 12.985 17.463 L 12.985 17.261 L 13.008 16.361 L 12.963 15.348 L 13.008 15.303 L 13.030 15.348 L 13.053 15.371 L 13.075 16.406 L 13.053 16.631 L 13.053 17.216 L 13.053 17.463 L 13.075 17.486 L 13.053 17.756 L 13.075 17.869 L 13.075 18.364 L 13.030 18.769 L 13.053 18.904 L 13.030 18.769 L 13.075 18.341 L 13.075 17.846 L 13.053 17.756 L 13.075 17.486 L 13.053 17.463 L 13.053 17.216 L 13.053 16.631 L 13.075 16.406 L 13.053 15.371 L 13.030 15.348 L 13.030 15.303 z" fill="none" stroke="black" stroke-width="0.056" />            <path d="M 7.044 14.155 L 7.066 14.200 L 7.066 14.718 L 7.066 14.830 L 7.044 15.010 L 7.066 16.833 L 7.089 16.856 L 7.089 17.103 L 7.134 17.103 L 7.156 17.036 L 7.156 16.946 L 7.134 15.461 L 7.111 14.290 L 7.089 14.200 z" fill="none" stroke="black" stroke-width="0.056" />            <path d="M 10.172 12.895 L 10.172 12.940 L 10.262 12.940 L 10.307 12.940 L 10.442 12.985 L 10.532 12.985 L 10.532 12.918 L 10.420 12.918 L 10.397 12.895 z" fill="none" stroke="black" stroke-width="0.056" />            <path d="M 10.577 12.805 L 10.622 12.873 L 10.622 13.143 L 10.600 13.660 L 10.645 13.885 L 10.645 13.975 L 10.645 14.718 L 10.622 14.763 L 10.667 15.933 L 10.645 16.113 L 10.645 16.181 L 10.667 16.203 L 10.667 16.293 L 10.667 16.406 L 10.645 16.428 L 10.645 16.541 L 10.667 18.521 L 10.712 18.656 L 10.735 18.971 L 10.712 18.634 L 10.667 18.521 L 10.645 16.541 L 10.645 16.428 L 10.667 16.406 L 10.667 16.293 L 10.667 16.203 L 10.645 16.181 L 10.645 16.113 L 10.667 15.933 L 10.622 14.763 L 10.645 14.718 L 10.645 13.975 L 10.645 13.885 L 10.600 13.638 L 10.622 13.143 L 10.600 12.828 L 10.645 12.805 L 10.690 12.850 L 10.690 13.075 L 10.667 13.795 L 10.735 13.908 L 10.735 13.998 L 10.690 14.178 L 10.690 14.268 L 10.690 14.335 L 10.712 15.798 L 10.757 16.721 L 10.757 17.216 L 10.712 17.598 L 10.712 17.688 L 10.735 18.521 L 10.780 18.746 L 10.780 18.971 L 10.780 18.724 L 10.735 18.499 L 10.712 17.621 L 10.757 17.216 L 10.757 16.721 L 10.712 15.798 L 10.690 14.335 L 10.690 14.223 L 10.735 13.998 L 10.735 13.908 L 10.712 13.840 L 10.667 13.773 L 10.690 13.098 L 10.690 12.850 L 10.667 12.805 z" fill="none" stroke="black" stroke-width="0.056" />            <path d="M 8.147 12.783 L 8.147 12.828 L 9.092 12.828 L 9.339 12.850 L 9.384 12.895 L 9.429 12.895 L 9.474 12.940 L 9.744 12.940 L 9.722 12.895 L 9.519 12.895 L 9.699 12.918 L 9.497 12.940 L 9.452 12.895 L 9.564 12.805 L 9.519 12.828 L 9.429 12.828 L 9.362 12.783 z" fill="none" stroke="black" stroke-width="0.056" />            <path d="M 7.899 12.805 L 7.899 13.008 L 7.922 13.030 L 7.922 13.210 L 7.854 13.255 L 7.809 13.210 L 7.809 13.143 L 7.764 13.098 L 7.674 13.098 L 7.629 13.143 L 7.629 13.188 L 7.584 13.233 L 7.111 13.233 L 7.066 13.255 L 7.044 13.278 L 7.021 13.323 L 7.021 13.368 L 7.044 13.570 L 6.954 13.660 L 6.931 13.705 L 6.886 13.863 L 6.886 13.998 L 6.909 14.065 L 6.931 14.110 L 6.999 14.178 L 7.021 14.088 L 6.954 13.998 L 6.954 13.863 L 6.976 13.795 L 6.999 13.750 L 7.021 13.705 L 7.089 13.638 L 7.111 13.593 L 7.089 13.345 L 7.156 13.278 L 7.629 13.278 L 7.652 13.278 L 7.674 13.210 L 7.764 13.188 L 7.742 13.255 L 7.787 13.300 L 7.967 13.278 L 7.989 12.783 z" fill="none" stroke="black" stroke-width="0.056" />            <path d="M 12.715 10.195 L 12.715 10.262 L 12.760 10.307 L 12.783 10.307 L 12.850 10.375 L 12.895 10.375 L 12.850 10.352 L 12.918 10.307 L 12.963 10.802 L 12.963 12.738 L 12.985 12.828 L 12.940 14.245 L 12.940 14.808 L 12.963 15.033 L 12.985 15.055 L 12.985 15.213 L 12.985 15.055 L 12.963 15.033 L 12.940 14.808 L 12.940 14.245 L 12.985 12.850 L 12.985 12.693 L 12.985 12.647 L 12.985 11.545 L 13.030 11.680 L 13.008 12.152 L 13.008 12.422 L 13.008 14.268 L 13.008 14.583 L 13.053 14.943 L 13.053 15.145 L 13.030 15.168 L 13.030 15.213 L 13.053 15.168 L 13.053 14.943 L 13.008 14.583 L 13.008 14.268 L 13.008 12.400 L 13.008 12.152 L 13.008 11.657 L 13.008 11.522 L 13.030 10.825 L 13.008 10.802 L 13.008 10.330 L 12.940 10.330 L 12.895 10.307 L 12.828 10.262 L 12.783 10.195 z" fill="none" stroke="black" stroke-width="0.056" />            <path d="M 18.026 8.552 L 18.004 8.597 L 18.161 8.597 L 18.184 8.619 L 18.791 8.642 L 18.859 8.619 L 19.309 8.642 L 19.309 8.597 L 19.151 8.597 L 19.129 8.574 L 18.499 8.552 z" fill="none" stroke="black" stroke-width="0.056" />            <path d="M 17.824 8.507 L 17.801 8.529 L 17.553 8.597 L 17.463 8.597 L 17.373 8.642 L 17.306 8.642 L 17.238 8.664 L 17.238 8.709 L 17.328 8.709 L 17.418 8.664 L 17.508 8.664 L 17.598 8.619 L 17.801 8.574 L 17.869 8.574 L 17.869 8.507 z" fill="none" stroke="black" stroke-width="0.056" />            <path d="M 13.323 8.462 L 13.323 8.507 L 13.503 8.507 L 13.548 8.529 L 13.638 8.619 L 13.705 8.619 L 13.750 8.597 L 13.818 8.529 L 13.885 8.507 L 14.965 8.507 L 15.483 8.529 L 15.573 8.619 L 15.596 8.687 L 15.911 8.709 L 15.911 8.664 L 15.686 8.664 L 15.641 8.619 L 15.618 8.552 L 15.551 8.484 L 15.191 8.484 L 15.528 8.484 L 15.641 8.597 L 15.663 8.664 L 15.888 8.687 L 15.641 8.709 L 15.596 8.664 L 15.573 8.597 L 15.506 8.529 L 14.988 8.507 L 13.863 8.507 L 13.773 8.552 L 13.728 8.507 L 13.773 8.462 L 15.100 8.462 L 15.145 8.484 L 13.728 8.484 L 13.638 8.462 L 13.615 8.484 L 13.548 8.484 z" fill="none" stroke="black" stroke-width="0.056" />            <path d="M 16.338 6.144 L 16.586 6.144 L 16.608 6.166 L 17.396 6.189 L 16.563 6.211 L 16.541 6.189 L 16.338 6.189 L 16.541 6.189 L 16.563 6.211 L 17.418 6.211 L 17.418 6.166 L 16.608 6.166 L 16.586 6.144 z" fill="none" stroke="black" stroke-width="0.056" />            <path d="M 11.005 5.941 L 10.937 5.964 L 10.847 6.031 L 10.600 6.009 L 10.487 6.009 L 10.307 6.031 L 10.262 5.986 L 10.217 5.986 L 10.195 6.031 L 10.217 6.076 L 10.285 6.099 L 10.240 6.076 L 10.195 6.031 L 10.240 5.986 L 10.285 6.031 L 10.465 6.054 L 10.375 6.076 L 10.465 6.099 L 10.442 6.166 L 10.397 6.211 L 10.330 6.144 L 10.375 6.211 L 10.442 6.189 L 10.510 6.121 L 10.510 6.189 L 10.487 6.234 L 10.330 6.256 L 10.285 6.211 L 10.285 6.144 L 10.307 6.256 L 10.487 6.256 L 10.510 6.211 L 10.532 6.076 L 10.712 6.076 L 10.487 6.099 L 10.487 6.009 L 10.577 6.009 L 10.802 6.054 L 11.005 5.941 L 11.185 5.941 L 11.432 5.941 L 11.590 5.941 L 11.770 5.986 L 11.860 5.986 L 12.085 5.964 L 12.625 5.986 L 12.693 6.009 L 12.760 6.076 L 12.805 6.099 L 13.615 6.121 L 13.458 6.166 L 13.413 6.166 L 13.368 6.144 L 13.278 6.166 L 12.760 6.144 L 12.670 6.054 L 12.467 6.076 L 12.332 6.031 L 12.175 6.054 L 11.657 6.009 L 11.005 6.009 L 10.960 6.054 L 10.847 6.099 L 10.757 6.076 L 10.847 6.099 L 10.915 6.076 L 11.027 6.009 L 11.612 6.009 L 12.175 6.054 L 12.355 6.031 L 12.445 6.076 L 12.490 6.076 L 12.647 6.054 L 12.738 6.144 L 13.278 6.166 L 13.413 6.166 L 13.458 6.166 L 13.615 6.144 L 13.930 6.189 L 14.088 6.189 L 14.425 6.189 L 14.605 6.189 L 16.001 6.166 L 16.023 6.189 L 16.248 6.189 L 16.046 6.189 L 16.023 6.166 L 14.583 6.189 L 14.448 6.189 L 14.065 6.189 L 13.930 6.189 L 13.660 6.099 L 16.091 6.144 L 16.203 6.121 L 16.248 6.144 L 13.683 6.121 L 12.828 6.099 L 12.783 6.076 L 12.715 6.009 L 12.625 5.986 L 12.085 5.964 L 11.860 5.986 L 11.792 5.986 L 11.590 5.941 L 11.432 5.941 L 11.185 5.941 z" fill="none" stroke="black" stroke-width="0.056" />            <path d="M 5.604 5.199 L 5.671 5.199 L 5.739 5.266 L 5.739 5.356 L 5.694 5.491 L 5.694 5.626 L 5.716 5.874 L 5.694 5.919 L 5.671 5.941 L 5.649 5.941 L 5.604 5.986 L 5.626 6.144 L 5.604 6.211 L 5.604 6.684 L 5.626 7.044 L 5.649 7.089 L 5.694 7.134 L 5.716 7.179 L 5.716 7.336 L 5.716 7.652 L 5.671 7.652 L 5.716 8.259 L 5.716 8.394 L 5.626 8.462 L 5.604 9.609 L 5.694 9.677 L 5.716 9.767 L 5.716 9.857 L 5.671 10.285 L 5.671 10.690 L 5.671 11.207 L 5.716 11.275 L 5.716 11.320 L 5.671 11.365 L 5.694 11.657 L 5.694 11.725 L 5.604 11.792 L 5.604 12.963 L 5.694 13.030 L 5.626 13.053 L 5.581 13.008 L 5.559 13.008 L 5.536 12.985 L 5.514 12.940 L 5.491 12.873 L 5.491 12.670 L 5.514 11.815 L 5.604 11.747 L 5.626 11.657 L 5.626 11.297 L 5.604 11.095 L 5.604 11.005 L 5.626 10.825 L 5.604 10.330 L 5.604 9.654 L 5.536 9.609 L 5.536 8.507 L 5.559 8.462 L 5.604 8.417 L 5.626 8.417 L 5.649 8.282 L 5.626 7.607 L 5.671 7.201 L 5.649 7.156 L 5.581 7.089 L 5.559 7.021 L 5.581 5.919 L 5.649 5.874 L 5.671 5.356 L 5.649 5.244 L 5.604 5.244 L 5.671 5.289 L 5.671 5.356 L 5.649 5.851 L 5.559 5.919 L 5.559 7.044 L 5.581 7.111 L 5.671 7.201 L 5.626 7.607 L 5.649 8.282 L 5.649 8.372 L 5.604 8.417 L 5.581 8.417 L 5.559 8.439 L 5.536 8.484 L 5.559 9.654 L 5.581 9.654 L 5.626 9.699 L 5.604 10.307 L 5.626 10.825 L 5.604 11.005 L 5.604 11.095 L 5.626 11.297 L 5.626 11.657 L 5.626 11.702 L 5.536 11.770 L 5.491 12.670 L 5.491 12.873 L 5.536 13.008 L 5.626 13.098 L 5.649 13.053 L 5.694 13.053 L 5.784 13.165 L 5.761 13.525 L 5.739 13.818 L 5.716 13.953 L 5.559 14.110 L 5.536 14.155 L 5.536 14.268 L 5.581 14.335 L 5.581 14.425 L 5.559 14.650 L 5.536 14.875 L 5.469 15.078 L 5.469 15.258 L 5.446 15.303 L 5.356 15.393 L 5.334 15.596 L 5.334 15.641 L 5.356 15.686 L 5.334 15.911 L 5.356 15.956 L 5.491 15.956 L 5.559 16.023 L 5.581 16.136 L 5.581 17.148 L 5.604 17.171 L 5.604 17.238 L 5.581 17.148 L 5.604 17.126 L 5.581 16.136 L 5.559 16.001 L 5.514 15.956 L 5.379 15.956 L 5.334 15.911 L 5.334 15.641 L 5.334 15.596 L 5.356 15.461 L 5.379 15.393 L 5.424 15.438 L 5.446 15.528 L 5.469 15.573 L 5.446 15.686 L 5.401 15.686 L 5.401 15.753 L 5.424 15.708 L 5.446 15.776 L 5.424 15.798 L 5.401 15.888 L 5.446 15.798 L 5.491 15.798 L 5.536 15.821 L 5.581 15.866 L 5.604 15.911 L 5.626 15.978 L 5.649 16.248 L 5.671 16.338 L 5.694 16.383 L 5.784 16.451 L 5.806 16.518 L 5.739 16.563 L 5.694 16.541 L 5.761 16.608 L 5.806 16.608 L 5.806 16.518 L 5.784 16.428 L 5.739 16.383 L 5.716 16.383 L 5.671 16.338 L 5.649 16.248 L 5.626 16.113 L 5.626 15.956 L 5.581 15.888 L 5.581 15.798 L 5.604 15.641 L 5.536 15.528 L 5.536 15.326 L 5.536 15.258 L 5.559 15.123 L 5.581 15.055 L 5.626 15.010 L 5.649 14.965 L 5.604 14.808 L 5.604 14.650 L 5.649 14.448 L 5.649 14.290 L 5.604 14.200 L 5.626 14.155 L 5.739 14.043 L 5.694 14.065 L 5.626 14.133 L 5.604 14.200 L 5.649 14.290 L 5.649 14.448 L 5.604 14.628 L 5.604 14.830 L 5.649 14.965 L 5.581 15.033 L 5.559 15.123 L 5.536 15.258 L 5.536 15.326 L 5.559 15.506 L 5.514 15.551 L 5.514 15.618 L 5.491 15.686 L 5.514 15.753 L 5.469 15.798 L 5.446 15.618 L 5.491 15.483 L 5.469 15.416 L 5.424 15.438 L 5.379 15.393 L 5.446 15.326 L 5.469 15.258 L 5.469 15.078 L 5.536 14.875 L 5.559 14.673 L 5.581 14.425 L 5.581 14.313 L 5.536 14.245 L 5.536 14.155 L 5.716 13.975 L 5.739 13.818 L 5.761 13.525 L 5.761 13.188 L 5.806 13.143 L 5.829 13.458 L 5.806 13.885 L 5.784 13.908 L 5.784 14.043 L 5.784 13.908 L 5.806 13.885 L 5.806 13.503 L 5.851 13.120 L 5.829 13.030 L 5.784 13.008 L 5.694 13.008 L 5.626 12.963 L 5.581 12.918 L 5.604 11.792 L 5.649 11.792 L 5.694 11.747 L 5.694 11.657 L 5.671 11.387 L 5.716 11.342 L 5.716 11.275 L 5.671 10.690 L 5.671 10.532 L 5.671 10.285 L 5.716 9.857 L 5.716 9.767 L 5.694 9.654 L 5.626 9.609 L 5.604 8.507 L 5.649 8.462 L 5.671 8.462 L 5.716 8.417 L 5.716 8.259 L 5.761 7.697 L 5.806 7.697 L 5.761 7.697 L 5.739 7.607 L 5.784 7.629 L 5.829 7.652 L 5.851 7.742 L 5.851 7.764 L 5.761 7.787 L 5.851 7.787 L 5.851 7.742 L 5.874 7.719 L 5.851 7.652 L 5.806 7.629 L 5.761 7.629 L 5.716 7.584 L 5.716 7.156 L 5.694 7.111 L 5.626 7.044 L 5.604 6.121 L 5.604 6.009 L 5.694 5.941 L 5.716 5.896 L 5.694 5.626 L 5.694 5.514 L 5.739 5.356 L 5.716 5.221 L 5.671 5.199 z" fill="none" stroke="black" stroke-width="0.056" />            <path d="M 10.150 4.343 L 10.104 4.388 L 10.104 5.064 L 10.082 5.221 L 9.992 5.289 L 9.969 5.311 L 9.947 5.356 L 9.947 5.446 L 9.969 5.986 L 10.014 5.986 L 10.037 5.941 L 10.037 5.829 L 10.014 5.806 L 10.014 5.716 L 10.014 5.469 L 10.014 5.379 L 10.082 5.311 L 10.104 5.311 L 10.150 5.266 L 10.172 4.883 L 10.150 4.636 L 10.150 4.456 L 10.240 4.388 L 10.195 4.388 L 10.150 4.433 L 10.150 4.636 L 10.172 4.883 L 10.150 5.244 L 10.059 5.311 L 10.014 5.356 L 10.014 5.491 L 10.014 5.716 L 10.014 5.806 L 10.037 5.829 L 10.037 5.919 L 9.992 5.964 L 9.947 5.446 L 9.947 5.356 L 10.059 5.266 L 10.104 5.086 L 10.104 4.411 L 10.172 4.343 L 10.240 4.343 z" fill="none" stroke="black" stroke-width="0.056" />            <path d="M 10.577 3.511 L 10.555 3.556 L 10.600 3.601 L 10.577 4.096 L 10.577 4.253 L 10.622 4.253 L 10.645 4.208 L 10.667 3.916 L 10.667 3.578 L 10.645 3.533 z" fill="none" stroke="black" stroke-width="0.056" />            <path d="M 9.722 3.398 L 9.744 3.466 L 9.969 3.466 L 10.014 3.533 L 10.217 3.533 L 10.352 3.556 L 10.420 3.533 L 10.420 3.488 L 10.104 3.511 L 10.037 3.421 L 9.992 3.398 z" fill="none" stroke="black" stroke-width="0.056" />            <path d="M 9.204 3.398 L 9.159 3.421 L 9.092 3.488 L 8.124 3.488 L 8.057 3.443 L 7.607 3.443 L 7.607 3.488 L 7.967 3.488 L 8.079 3.533 L 8.709 3.556 L 8.822 3.556 L 9.137 3.533 L 9.182 3.511 L 9.227 3.466 L 9.272 3.443 L 9.609 3.466 L 9.677 3.443 L 9.677 3.398 z" fill="none" stroke="black" stroke-width="0.056" />            <path d="M 5.829 3.353 L 5.806 3.376 L 5.356 3.376 L 5.311 3.443 L 4.276 3.443 L 5.289 3.466 L 5.379 3.376 L 5.829 3.376 L 5.851 3.353 L 5.919 3.353 z" fill="none" stroke="black" stroke-width="0.056" />            <path d="M 6.031 3.331 L 6.121 3.331 L 6.166 3.353 L 6.234 3.421 L 6.324 3.488 L 6.256 3.488 L 6.211 3.466 L 6.166 3.443 L 6.121 3.398 L 6.076 3.376 L 6.009 3.376 L 6.099 3.398 L 6.144 3.443 L 6.189 3.466 L 6.256 3.488 L 6.324 3.488 L 6.841 3.488 L 6.886 3.466 L 6.886 3.421 L 6.256 3.421 L 6.189 3.353 L 6.121 3.331 z" fill="none" stroke="black" stroke-width="0.056" />            <path d="M 5.424 3.308 L 5.266 3.353 L 5.266 3.376 L 5.086 3.421 L 4.906 3.421 L 4.861 3.421 L 4.793 3.376 L 4.726 3.376 L 4.636 3.421 L 4.456 3.421 L 4.433 3.398 L 4.298 3.398 L 4.433 3.398 L 4.681 3.421 L 4.793 3.398 L 4.861 3.421 L 4.928 3.421 L 5.109 3.421 L 5.266 3.398 L 5.311 3.331 L 5.424 3.308 L 5.581 3.308 L 5.784 3.331 L 5.806 3.308 L 5.919 3.308 L 5.806 3.308 L 5.784 3.331 L 5.559 3.308 z" fill="none" stroke="black" stroke-width="0.056" />            <path d="M 3.871 3.308 L 3.871 3.353 L 3.916 3.398 L 3.961 3.421 L 4.051 3.421 L 4.051 3.376 L 3.983 3.353 L 3.938 3.308 z" fill="none" stroke="black" stroke-width="0.056" />            <path d="M 3.331 3.263 L 3.331 3.331 L 3.511 3.353 L 3.353 3.263 L 3.398 3.263 L 3.443 3.263 L 3.578 3.308 L 3.623 3.308 L 3.758 3.286 L 3.803 3.331 L 3.556 3.353 L 3.826 3.353 L 3.826 3.308 L 3.758 3.286 L 3.623 3.308 L 3.578 3.308 L 3.466 3.263 L 3.376 3.286 z" fill="none" stroke="black" stroke-width="0.056" />            <path d="M 0.000 0.000 L 22.504 0.000 L 22.504 22.504 L 0.000 22.504 L 0.000 0.000 z" fill="none" stroke="black" stroke-width="0.056" /></svg>